<?xml version="1.0" standalone="no"?>
<!DOCTYPE svg PUBLIC "-//W3C//DTD SVG 20010904//EN"
 "http://www.w3.org/TR/2001/REC-SVG-20010904/DTD/svg10.dtd">
<svg version="1.0" xmlns="http://www.w3.org/2000/svg"
 width="225.000000pt" height="225.000000pt" viewBox="0 0 225.000000 225.000000"
 preserveAspectRatio="xMidYMid meet">
<metadata>
Created by potrace 1.11, written by Peter Selinger 2001-2013
</metadata>
<g transform="translate(0.000000,225.000000) scale(0.100000,-0.100000)"
fill="#000000" stroke="none">
<path d="M1016 2189 c-246 -26 -475 -136 -651 -314 -136 -136 -232 -304 -282
-493 -24 -87 -26 -115 -26 -272 0 -159 2 -184 27 -275 112 -411 435 -712 849
-790 102 -19 302 -19 404 0 579 110 963 659 868 1241 -79 488 -468 852 -965
904 -106 11 -113 11 -224 -1z m182 -95 c12 -4 22 -10 22 -16 0 -5 -8 -4 -19 2
-28 14 -38 13 -61 -10 -24 -24 -26 -67 -4 -99 13 -18 24 -22 50 -19 18 2 30 0
28 -4 -11 -17 -84 -8 -104 12 -37 37 -24 105 24 126 37 16 35 15 64 8z m207
-49 c39 -38 27 -102 -22 -124 -42 -19 -61 -13 -26 9 59 35 54 130 -6 130 -35
0 -50 -17 -58 -64 -4 -27 -1 -42 12 -56 24 -26 1 -26 -25 0 -26 26 -26 70 1
104 28 36 89 37 124 1z m-615 -34 c0 -5 -9 -7 -20 -4 -25 7 -60 -22 -60 -49 0
-30 28 -76 51 -83 14 -5 31 0 50 14 16 12 29 17 29 12 0 -16 -55 -41 -90 -41
-23 0 -35 7 -50 33 -27 44 -25 63 9 98 28 27 81 41 81 20z m756 -67 l21 -69
22 48 c13 27 25 47 27 44 6 -6 -56 -137 -65 -137 -4 0 -15 32 -25 70 -10 39
-22 70 -25 70 -4 0 -17 -21 -29 -46 -13 -26 -25 -44 -28 -41 -8 8 60 137 70
134 6 -2 20 -35 32 -73z m-893 -73 c33 -50 38 -71 18 -71 -4 0 -26 28 -50 62
-32 46 -39 63 -29 69 15 10 15 10 61 -60z m1077 24 c7 -9 10 -18 7 -22 -4 -3
-9 2 -13 11 -3 9 -15 16 -26 16 -21 0 -22 -19 -3 -76 8 -25 -17 -54 -46 -54
-24 0 -62 37 -53 52 5 7 10 4 15 -9 11 -30 29 -38 46 -20 12 11 12 19 4 35
-12 23 -15 65 -4 75 12 13 60 7 73 -8z m-1156 -69 c25 -29 46 -56 46 -60 0 -4
-35 -4 -77 0 l-78 7 33 -37 c17 -20 32 -42 32 -48 0 -6 -1 -9 -3 -7 -2 2 -25
28 -52 57 -28 30 -44 56 -39 61 5 4 39 5 77 2 37 -4 67 -4 67 -2 0 3 -17 22
-37 43 -20 21 -32 38 -26 38 6 0 32 -24 57 -54z m751 -1 c244 -66 437 -254
515 -500 34 -107 38 -265 11 -378 -61 -256 -239 -451 -486 -534 -73 -25 -94
-27 -230 -27 -136 0 -157 2 -230 27 -113 37 -197 90 -286 177 -139 137 -208
292 -217 486 -3 84 0 130 13 190 63 288 280 503 570 568 86 19 252 15 340 -9z
m491 -7 c4 -7 -8 -23 -30 -41 -48 -38 -60 -61 -46 -87 17 -32 55 -25 105 21
25 23 45 37 45 32 0 -12 -59 -67 -85 -81 -25 -12 -58 0 -79 30 -23 33 -20 44
25 93 44 47 53 52 65 33z m-1383 -135 c43 -11 67 -23 67 -31 0 -11 -8 -13 -30
-9 -23 5 -33 2 -44 -15 -14 -20 -14 -24 -1 -45 9 -13 11 -23 6 -23 -5 0 -20
19 -33 43 -13 23 -32 54 -42 70 -22 33 -17 34 77 10z m1517 -34 c0 -5 -11 -27
-25 -47 -14 -20 -25 -40 -25 -45 0 -5 25 -7 55 -6 30 1 57 0 60 -3 4 -3 -21
-27 -53 -52 -48 -37 -62 -43 -71 -32 -9 10 -2 19 29 40 22 14 40 29 40 32 0 4
-25 4 -55 2 -30 -3 -55 -2 -55 1 0 4 12 24 26 44 14 21 24 41 21 43 -2 2 -21
-3 -42 -11 -20 -9 -39 -14 -42 -12 -4 4 114 55 130 57 4 0 7 -5 7 -11z m-1666
-77 c-36 -28 -39 -58 -10 -87 27 -27 83 -34 104 -13 19 19 14 49 -8 55 -22 6
-28 33 -7 33 7 0 21 -6 32 -13 16 -12 17 -18 6 -47 -17 -50 -39 -70 -78 -70
-51 0 -87 40 -80 87 6 37 32 73 51 73 6 0 1 -8 -10 -18z m1779 -134 c2 -13 8
-31 12 -40 4 -11 3 -18 -4 -18 -6 0 -11 9 -11 20 0 14 -7 20 -23 20 -32 0 -37
-8 -27 -36 5 -13 6 -24 1 -24 -5 0 -11 9 -14 20 -5 21 -32 26 -56 11 -10 -7
-11 -13 -2 -30 7 -12 8 -21 2 -21 -8 0 -23 43 -23 67 1 6 111 49 133 52 4 1 9
-9 12 -21z m-1806 -59 c6 -20 20 -21 67 -3 10 4 16 1 16 -10 0 -9 -15 -19 -42
-26 -31 -9 -38 -14 -27 -21 8 -5 24 -9 36 -9 15 0 20 -5 16 -18 -4 -17 -7 -17
-77 2 l-73 21 7 31 c10 45 18 54 47 54 17 0 27 -7 30 -21z m1843 -76 c0 -13
-9 -18 -30 -19 -39 -1 -48 -11 -29 -30 15 -15 49 -10 49 7 0 5 5 9 10 9 15 0
12 -27 -6 -44 -20 -20 -29 -20 -49 0 -15 15 -19 14 -51 -17 -28 -27 -34 -30
-34 -14 0 11 14 34 32 52 l31 32 -36 -6 c-29 -4 -37 -2 -37 9 0 13 51 27 138
37 6 0 12 -7 12 -16z m-1811 -89 c54 -68 -2 -155 -85 -132 -39 10 -59 52 -50
103 8 41 27 54 78 55 28 0 41 -6 57 -26z m1697 -67 c-13 -10 -16 -20 -12 -35
10 -32 31 -27 56 13 23 36 55 46 78 23 13 -13 17 -68 4 -68 -4 0 -8 12 -7 27
0 40 -22 39 -46 -2 -18 -31 -26 -36 -53 -33 -23 2 -33 10 -40 29 -11 33 -2 59
21 59 15 0 15 -1 -1 -13z m-112 -709 c-3 -5 -37 -6 -75 -2 -41 4 -69 3 -69 -3
0 -5 14 -22 30 -38 17 -16 30 -33 30 -39 0 -6 -25 14 -55 44 -33 33 -51 58
-46 63 5 5 39 8 75 5 36 -2 66 -1 66 2 0 4 -13 19 -30 35 -16 16 -30 33 -30
39 0 6 25 -14 55 -44 30 -29 52 -57 49 -62z m-1354 92 c0 -6 -16 -43 -36 -82
-30 -60 -38 -69 -46 -54 -7 12 -6 22 3 32 19 24 -17 57 -55 50 -44 -9 -24 4
52 35 78 31 82 32 82 19z m107 -97 c7 -9 10 -21 6 -26 -3 -6 -10 0 -15 12 -5
14 -14 21 -25 19 -18 -4 -19 -14 -7 -75 5 -28 3 -34 -19 -44 -22 -10 -31 -9
-52 5 -14 9 -25 24 -25 32 0 12 4 11 18 -7 24 -29 58 -20 47 14 -16 52 -16 65
0 81 19 19 52 14 72 -11z m1062 -49 c51 -65 -2 -146 -89 -134 -24 3 -49 33
-56 67 -5 27 -1 37 24 63 40 40 91 42 121 4z m-971 -10 c12 -8 22 -21 22 -27
0 -7 -7 -4 -14 6 -29 38 -68 12 -42 -28 29 -44 15 -85 -29 -85 -26 0 -63 25
-52 36 4 4 13 -1 21 -11 16 -22 46 -14 46 12 0 10 -7 27 -15 37 -19 26 -19 32
5 56 24 24 29 24 58 4z m790 -96 c27 -69 30 -83 14 -83 -8 0 -27 30 -42 68
-26 60 -27 67 -11 67 12 0 24 -17 39 -52z m-639 27 c48 -24 56 -81 16 -120
-27 -28 -63 -32 -104 -10 -46 24 -55 74 -20 119 24 30 64 34 108 11z m537 -10
c-19 -14 -19 -17 -3 -75 21 -72 20 -70 2 -70 -13 0 -20 17 -41 102 -5 24 -10
27 -33 22 -41 -10 -19 5 30 20 58 18 68 18 45 1z m-342 -31 c9 -3 16 -14 16
-23 -1 -14 -2 -14 -11 2 -6 10 -22 17 -39 17 -54 0 -81 -79 -40 -120 16 -16
17 -20 5 -20 -26 0 -55 38 -55 72 0 59 63 95 124 72z m227 -67 c29 -51 34 -67
23 -67 -9 0 -23 9 -32 20 -22 26 -60 17 -68 -16 -3 -13 -9 -24 -13 -24 -4 0 2
36 13 80 12 44 25 79 30 77 5 -2 26 -33 47 -70z m-141 -12 c0 -65 -2 -75 -17
-75 -16 0 -18 9 -15 75 3 57 7 75 18 75 11 0 14 -17 14 -75z"/>
<path d="M929 1784 c-20 -24 -129 -252 -129 -270 0 -7 12 -21 28 -31 15 -9 28
-18 30 -19 2 -1 -45 -100 -105 -220 -103 -208 -110 -219 -156 -247 -45 -29
-113 -118 -103 -136 11 -17 127 -82 136 -76 25 15 60 106 60 154 0 42 14 77
101 252 56 112 105 214 110 226 7 19 11 20 37 11 16 -6 36 -9 44 -5 15 5 148
265 148 288 0 33 -32 -11 -90 -124 -36 -70 -71 -127 -77 -127 -20 0 -16 12 47
141 60 122 71 154 48 147 -10 -4 -103 -178 -141 -263 -3 -6 -9 -6 -16 1 -9 8
3 41 49 134 33 67 60 132 60 143 0 40 -32 -6 -91 -130 -54 -114 -66 -132 -81
-117 -4 3 21 61 54 129 33 68 58 132 56 141 -3 14 -5 14 -19 -2z m-276 -823
c5 -19 -9 -110 -18 -119 -6 -6 -73 29 -87 46 -13 15 10 45 57 73 38 24 41 24
48 0z"/>
<path d="M1340 1706 c-51 -18 -65 -27 -63 -42 4 -42 34 -93 71 -122 23 -19 46
-50 58 -78 10 -26 58 -140 105 -253 56 -133 82 -208 75 -213 -6 -4 -28 -10
-48 -13 -21 -4 -38 -12 -38 -18 0 -7 14 -36 31 -65 26 -46 40 -58 93 -83 36
-17 70 -27 80 -23 9 3 29 27 43 52 30 51 35 113 14 190 -11 40 -14 43 -29 29
-9 -8 -31 -22 -49 -31 l-31 -16 -77 183 c-132 310 -134 316 -128 373 5 50 -19
155 -35 153 -4 0 -36 -11 -72 -23z m79 -91 c0 -22 -4 -49 -8 -60 -8 -18 -12
-16 -56 28 -53 52 -52 59 10 80 47 17 55 10 54 -48z"/>
<path d="M1080 1358 c0 -9 -11 -18 -27 -21 -48 -10 -109 -62 -137 -118 -63
-127 -7 -281 124 -337 52 -22 147 -20 195 5 112 58 164 173 130 288 -29 101
-119 174 -215 175 -26 0 -51 5 -58 12 -9 9 -12 9 -12 -4z m130 -148 c0 -5 -21
-10 -47 -10 -44 0 -52 -4 -100 -52 -40 -40 -53 -48 -53 -33 0 10 3 15 7 11 4
-3 27 14 52 38 38 37 54 46 91 49 25 2 46 4 48 5 1 1 2 -2 2 -8z"/>
<path d="M895 733 c49 -77 58 -85 117 -110 41 -18 55 -29 46 -34 -7 -5 -80 -9
-162 -9 l-149 0 49 -26 c46 -24 58 -26 184 -25 86 0 160 6 203 16 52 12 77 13
105 5 53 -14 84 -12 132 9 l42 19 -28 5 c-16 3 -49 9 -74 13 -60 9 -64 12 -38
34 28 24 23 24 -32 5 -38 -13 -50 -13 -109 0 -111 26 -163 46 -234 91 -37 24
-70 44 -72 44 -2 0 7 -17 20 -37z"/>
<path d="M380 1663 c0 -5 6 -17 13 -27 12 -16 14 -16 26 -2 16 19 14 21 -16
30 -13 4 -23 3 -23 -1z"/>
<path d="M197 1364 c-13 -14 -7 -22 24 -33 28 -10 30 -9 27 12 -3 22 -36 35
-51 21z"/>
<path d="M176 1194 c-37 -37 -7 -84 54 -84 42 0 70 20 70 50 0 43 -91 68 -124
34z"/>
<path d="M448 503 c-22 -5 -23 -17 -4 -32 12 -10 17 -8 25 8 18 32 16 34 -21
24z"/>
<path d="M1588 389 c-26 -15 -22 -62 8 -98 31 -37 58 -39 80 -6 18 28 13 53
-21 89 -26 28 -40 31 -67 15z"/>
<path d="M791 284 c-36 -46 -20 -114 28 -114 44 0 78 91 46 123 -24 24 -50 21
-74 -9z"/>
<path d="M1227 198 c-8 -28 -4 -32 22 -23 17 5 19 10 11 26 -14 25 -26 24 -33
-3z"/>
</g>
</svg>
