<?xml version="1.0" encoding="UTF-8"?>
<svg width="14px" height="17px" viewBox="0 0 14 17" version="1.1" xmlns="http://www.w3.org/2000/svg" xmlns:xlink="http://www.w3.org/1999/xlink">
    <!-- Generator: Sketch 49.2 (51160) - http://www.bohemiancoding.com/sketch -->
    <title>icon-paypal-white</title>
    <desc>Created with Sketch.</desc>
    <defs></defs>
    <g id="Page-1" stroke="none" stroke-width="1" fill="none" fill-rule="evenodd">
        <g id="icon-paypal-white" fill-rule="nonzero">
            <path d="M11.8669503,1.25704225 C11.1446142,0.419014085 9.80313286,0 7.94569716,0 L2.78615355,0 C2.47658093,0 2.16700832,0.314260563 2.06381744,0.628521127 L0,14.3512324 C0,14.665493 0.206381744,14.875 0.412763489,14.875 L3.61168053,14.875 L4.4372075,9.74207746 L4.4372075,9.95158451 C4.54039838,9.63732394 4.84997099,9.32306338 5.15954361,9.32306338 L6.70740669,9.32306338 C9.69994198,9.32306338 11.9701412,8.06602113 12.6924773,4.60915493 C12.6924773,4.50440141 12.6924773,4.39964789 12.6924773,4.29489437 C12.5892864,4.29489437 12.5892864,4.29489437 12.6924773,4.29489437 C12.7956681,2.93309859 12.5892864,2.09507042 11.8669503,1.25704225" id="Shape-Copy-2" fill="#FFFFFF"></path>
            <path d="M12.3568864,4 C12.3568864,4.10714286 12.3568864,4.21428571 12.3568864,4.32142857 C11.6291285,7.96428571 9.34188965,9.14285714 6.32689293,9.14285714 L4.76741187,9.14285714 C4.45551566,9.14285714 4.14361944,9.46428571 4.03965404,9.78571429 L3,16.3214286 C3,16.5357143 3.1039654,16.75 3.41586162,16.75 L6.11896212,16.75 C6.43085833,16.75 6.74275455,16.5357143 6.74275455,16.2142857 L6.74275455,16.1071429 L7.26258157,12.7857143 L7.26258157,12.5714286 C7.26258157,12.25 7.57447778,12.0357143 7.88637399,12.0357143 L8.30223561,12.0357143 C10.9013707,12.0357143 12.9806788,10.9642857 13.5005058,7.75 C13.7084366,6.46428571 13.6044712,5.28571429 12.9806788,4.53571429 C12.8767134,4.32142857 12.6687826,4.10714286 12.3568864,4" id="Shape-Copy-3" fill="#323232" opacity="0.219999999"></path>
            <path d="M11.5362319,4.31875 C11.431562,4.31875 11.3268921,4.2125 11.2222222,4.2125 C11.1175523,4.2125 11.0128824,4.2125 10.9082126,4.10625 C10.489533,4 10.0708535,4 9.54750403,4 L5.46537842,4 C5.36070853,4 5.25603865,4 5.15136876,4.10625 C4.94202899,4.2125 4.8373591,4.425 4.8373591,4.6375 L4,10.1625 L4,10.375 C4.10466989,10.05625 4.41867955,9.7375 4.73268921,9.7375 L6.30273752,9.7375 C9.33816425,9.7375 11.6409018,8.4625 12.373591,4.95625 C12.373591,4.85 12.373591,4.74375 12.4782609,4.6375 C12.2689211,4.53125 12.1642512,4.425 11.9549114,4.425 C11.6409018,4.31875 11.6409018,4.31875 11.5362319,4.31875" id="Shape-Copy-4" fill="#E9E9E9" opacity="0.229999989"></path>
        </g>
    </g>
</svg>