<?xml version="1.0" encoding="UTF-8"?>
<svg width="18px" height="14px" viewBox="0 0 18 14" version="1.1" xmlns="http://www.w3.org/2000/svg" xmlns:xlink="http://www.w3.org/1999/xlink">
    <!-- Generator: Sketch 49.2 (51160) - http://www.bohemiancoding.com/sketch -->
    <title>icon-check</title>
    <desc>Created with Sketch.</desc>
    <defs></defs>
    <g id="Page-1" stroke="none" stroke-width="1" fill="none" fill-rule="evenodd">
        <path d="M15.75,0 C16.72125,0 17.5,0.77875 17.5,1.75 L17.5,12.25 C17.5,13.22125 16.72125,14 15.75,14 L1.75,14 C0.77875,14 0,13.22125 0,12.25 L0.00875,1.75 C0.00875,0.77875 0.77875,0 1.75,0 L15.75,0 Z M8.75,3.5 L8.75,1.75 L1.75,1.75 L1.75,3.5 L8.75,3.5 Z M15.75,12.25 L15.75,10.5 L7.875,10.5 L7.875,12.25 L15.75,12.25 Z M15.75,7.875 L15.75,6.125 L1.75,6.125 L1.75,7.875 L15.75,7.875 Z" id="icon-check" fill="#323232" fill-rule="nonzero"></path>
    </g>
</svg>