<svg xmlns="http://www.w3.org/2000/svg" width="15" height="15" viewBox="0 0 15 15">
    <path fill="#323232" fill-rule="nonzero" d="M7.5 0C5.464 0 5.208.009 4.407.045c-.797.036-1.343.163-1.82.349a3.664 3.664 0 0 0-1.328.865 3.664 3.664 0 0 0-.865 1.328C.208 3.064.08 3.61.045 4.407.009 5.207 0 5.464 0 7.5s.009 2.292.045 3.093c.036.797.163 1.343.349 1.82.191.493.448.911.865 1.328.417.417.835.674 1.328.865.477.186 1.023.313 1.82.349.8.036 1.057.045 3.093.045s2.292-.009 3.093-.045c.797-.036 1.343-.163 1.82-.349a3.664 3.664 0 0 0 1.328-.865c.417-.417.674-.835.865-1.328.186-.477.313-1.023.349-1.82.036-.8.045-1.057.045-3.093s-.009-2.292-.045-3.093c-.036-.797-.163-1.343-.349-1.82a3.664 3.664 0 0 0-.865-1.328 3.664 3.664 0 0 0-1.328-.865C11.936.208 11.39.08 10.593.045 9.793.009 9.536 0 7.5 0m0 1.352c2.003 0 2.24.007 3.03.043.731.034 1.13.155 1.393.259.35.135.6.298.862.56.263.263.426.512.561.863.104.264.225.662.259 1.392.036.792.043 1.028.043 3.031s-.007 2.24-.043 3.03c-.034.731-.155 1.13-.259 1.393-.135.35-.298.6-.56.862a2.31 2.31 0 0 1-.863.561c-.264.104-.662.225-1.392.259-.79.036-1.028.043-3.031.043s-2.24-.007-3.03-.043c-.731-.034-1.13-.155-1.393-.259a2.31 2.31 0 0 1-.862-.56 2.31 2.31 0 0 1-.561-.863c-.104-.264-.225-.662-.259-1.392-.036-.792-.043-1.028-.043-3.031s.007-2.24.043-3.03c.034-.731.155-1.13.259-1.393.135-.35.298-.6.56-.862a2.31 2.31 0 0 1 .863-.561c.264-.104.662-.225 1.392-.259.792-.036 1.028-.043 3.031-.043m0 2.297a3.851 3.851 0 1 1 0 7.702 3.851 3.851 0 0 1 0-7.702zM7.5 10a2.5 2.5 0 1 0 0-5 2.5 2.5 0 0 0 0 5zm4.904-6.504a.9.9 0 1 1-1.801 0 .9.9 0 0 1 1.8 0"/>
</svg>
