<svg xmlns="http://www.w3.org/2000/svg" width="18" height="14" viewBox="0 0 18 14">
    <path fill="#323232" fill-rule="nonzero" d="M15.943 2.239c.171-.083.257-.249.428-.332.6-.414.943-.995 1.2-1.658l-.514.249c-.514.248-1.286.58-1.886.58C14.486.498 13.714 0 12.257 0c-.171 0-.257 0-.428.083-.258.083-.6.166-.858.249-1.028.414-1.714 1.244-2.057 2.404-.171.415-.171 1.244 0 1.659-.6 0-1.2-.083-1.628-.249-1.972-.497-3.172-1.078-4.543-2.073-.429-.332-.772-.663-1.114-.995L1.286.746c-.172.25-.343.58-.429.912-.343 1.327.172 2.488.857 3.234.172.25.515.332.686.58-.171.084-.343 0-.514-.082-.257-.083-.515-.083-.772-.249-.085-.083-.171-.166-.343-.166 0 1.493.772 2.488 1.715 3.068.343.166.771.415 1.2.498-.257.166-1.286.083-1.629.083.429 1.16 1.114 1.907 2.314 2.239.343.083.686.166 1.115.166-.257.248-.686.497-1.029.663-.6.332-1.371.58-2.228.746-.343.083-.686.083-1.029.083-.429.083-.857 0-1.2-.083.086.083.257.166.343.166l1.028.498c.686.248 1.372.497 2.143.663 1.629.415 3.857.249 5.229-.249C12.6 12.356 15 9.62 15.943 5.64c.171-.664.171-1.493.171-2.322.257.083.515-.083.686-.249.429-.332.943-.912 1.2-1.41-.6.166-1.286.58-2.057.58z"/>
</svg>
